<?xml version="1.0" standalone="no"?>
<!DOCTYPE svg PUBLIC "-//W3C//DTD SVG 20010904//EN"
 "http://www.w3.org/TR/2001/REC-SVG-20010904/DTD/svg10.dtd">
<svg version="1.0" xmlns="http://www.w3.org/2000/svg"
 width="512.000000pt" height="119.000000pt" viewBox="0 0 512.000000 119.000000"
 preserveAspectRatio="xMidYMid meet">

<g transform="translate(0.000000,119.000000) scale(0.100000,-0.100000)"
fill="#000000" stroke="none">
<path d="M1634 740 c-31 -12 -64 -59 -64 -91 0 -41 37 -77 100 -97 48 -15 55
-21 58 -46 6 -47 -52 -65 -85 -26 -21 24 -73 27 -73 4 0 -8 13 -29 29 -45 25
-24 37 -29 81 -29 62 0 85 11 106 51 29 57 -7 120 -78 140 -54 14 -82 43 -68
69 13 24 62 27 80 5 13 -15 80 -21 80 -7 0 19 -35 55 -66 68 -37 16 -69 17
-100 4z m116 -170 c8 -5 11 -10 6 -10 -6 0 -1 -7 10 -15 15 -12 11 -12 -18 1
-20 10 -35 21 -32 26 7 10 15 10 34 -2z"/>
<path d="M1980 703 c0 -20 1 -34 3 -32 1 2 15 19 31 37 l30 32 -32 0 c-30 0
-32 -2 -32 -37z"/>
<path d="M2150 734 c0 -3 11 -19 25 -36 l25 -30 0 36 c0 32 -3 36 -25 36 -14
0 -25 -3 -25 -6z"/>
<path d="M2465 728 c-48 -26 -101 -94 -93 -119 2 -5 38 22 81 61 63 56 73 70
55 70 -13 0 -32 -6 -43 -12z"/>
<path d="M3441 615 c-1 -114 1 -127 20 -146 11 -11 24 -18 27 -14 4 3 -4 14
-16 24 l-23 17 26 24 c22 21 25 32 25 92 0 62 -9 84 -25 58 -11 -18 -25 -11
-22 12 2 11 14 29 26 40 l23 18 -30 0 -30 0 -1 -125z"/>
<path d="M2490 681 c-39 -33 -39 -36 8 -46 32 -7 32 -7 32 34 0 23 -1 41 -2
41 -2 0 -19 -14 -38 -29z"/>
<path d="M3022 682 c0 -17 -6 -41 -12 -53 -10 -18 -9 -26 9 -48 12 -14 36 -56
53 -93 17 -37 34 -65 38 -63 4 3 11 20 14 39 6 29 -2 52 -47 142 -45 90 -54
102 -55 76z"/>
<path d="M2004 668 c-25 -28 -30 -41 -26 -71 3 -29 9 -38 28 -43 28 -7 29 -12
9 -41 -13 -18 -13 -26 -3 -43 20 -32 28 -24 28 30 l0 50 50 0 c42 0 50 3 50
19 0 15 -10 20 -49 25 l-50 7 -3 51 -3 52 -31 -36z"/>
<path d="M2926 564 c-15 -31 -25 -58 -23 -60 2 -2 16 21 31 52 15 31 26 58 24
60 -2 2 -16 -22 -32 -52z"/>
<path d="M2612 520 c-19 -34 -25 -36 -42 -15 -19 23 -30 18 -30 -12 0 -53 13
-54 63 -9 45 42 59 66 37 66 -6 0 -19 -13 -28 -30z"/>
<path d="M1980 435 c0 -25 14 -33 25 -15 4 6 12 7 18 3 7 -3 3 3 -7 15 -25 29
-36 28 -36 -3z"/>
<path d="M2890 426 c0 -9 7 -16 16 -16 17 0 14 22 -4 28 -7 2 -12 -3 -12 -12z"/>
<path d="M3485 430 c-3 -5 -1 -10 4 -10 6 0 11 5 11 10 0 6 -2 10 -4 10 -3 0
-8 -4 -11 -10z"/>
</g>
</svg>
